<?xml version="1.0" standalone="no"?>
<!DOCTYPE svg PUBLIC "-//W3C//DTD SVG 20010904//EN"
 "http://www.w3.org/TR/2001/REC-SVG-20010904/DTD/svg10.dtd">
<svg version="1.0" xmlns="http://www.w3.org/2000/svg"
 width="1280.000000pt" height="1280.000000pt" viewBox="0 0 1280.000000 1280.000000"
 preserveAspectRatio="xMidYMid meet">
<g transform="translate(0.000000,1280.000000) scale(0.100000,-0.100000)"
fill="#f44336" stroke="none">
<path d="M6028 12795 c-3 -3 -84 -12 -179 -20 -207 -17 -422 -46 -539 -74 -47
-10 -179 -38 -295 -61 -236 -47 -475 -112 -625 -170 -55 -22 -188 -71 -296
-111 -108 -39 -321 -128 -474 -199 -218 -101 -306 -147 -411 -217 -74 -49
-190 -122 -258 -162 -229 -133 -575 -393 -751 -565 -74 -73 -179 -167 -232
-210 -61 -49 -125 -113 -174 -174 -43 -53 -139 -160 -214 -237 -158 -164 -442
-542 -561 -745 -40 -69 -113 -185 -162 -259 -70 -105 -116 -193 -217 -411 -71
-153 -160 -366 -199 -474 -40 -108 -89 -241 -111 -296 -58 -150 -123 -389
-170 -625 -23 -115 -51 -248 -61 -295 -26 -109 -55 -317 -77 -540 -23 -245
-23 -855 0 -1100 22 -223 51 -431 77 -540 10 -47 38 -179 61 -295 47 -236 112
-475 170 -625 22 -55 71 -188 111 -296 39 -108 128 -320 198 -472 103 -224
147 -306 227 -427 55 -82 128 -199 162 -260 35 -60 106 -162 158 -225 52 -63
134 -173 181 -245 64 -96 120 -165 218 -265 72 -74 166 -179 209 -232 49 -61
113 -125 174 -174 53 -43 158 -138 232 -210 99 -97 166 -152 252 -208 64 -42
176 -123 248 -181 71 -58 185 -138 252 -177 68 -39 183 -112 257 -161 105 -70
193 -116 411 -217 153 -71 366 -160 474 -199 108 -40 241 -89 296 -111 150
-58 389 -123 625 -170 116 -23 248 -51 295 -61 109 -26 317 -55 540 -77 245
-23 855 -23 1100 0 223 22 431 51 540 77 47 10 180 38 295 61 236 47 475 112
625 170 55 22 188 71 296 111 108 39 321 128 474 199 218 101 306 147 411 217
74 49 189 122 257 161 67 39 181 119 252 177 72 58 184 139 248 181 86 56 153
111 252 208 74 72 179 167 232 210 61 49 125 113 174 174 43 53 137 158 209
232 98 100 154 169 218 265 47 72 129 182 181 245 52 63 123 165 158 225 34
61 107 178 162 260 80 121 124 203 227 427 70 152 159 364 198 472 40 108 89
241 111 296 58 150 123 389 170 625 23 116 51 248 61 295 26 109 55 317 77
540 12 129 16 273 16 550 0 277 -4 421 -16 550 -22 223 -51 431 -77 540 -10
47 -38 180 -61 295 -47 236 -112 475 -170 625 -22 55 -71 188 -111 296 -39
108 -128 321 -199 474 -101 218 -147 306 -217 411 -49 74 -122 190 -162 259
-119 203 -403 581 -561 745 -75 77 -171 184 -214 237 -49 61 -113 125 -174
174 -53 43 -158 137 -232 210 -176 172 -522 432 -751 565 -68 40 -184 113
-258 162 -105 70 -193 116 -411 217 -153 71 -366 160 -474 199 -108 40 -241
89 -296 111 -150 58 -389 123 -625 170 -115 23 -248 51 -295 61 -108 25 -317
55 -535 76 -167 16 -914 31 -927 18z m862 -40 c214 -16 448 -46 580 -75 47
-11 187 -40 310 -65 272 -55 469 -110 652 -181 76 -29 207 -78 292 -108 84
-30 283 -115 442 -188 230 -107 316 -152 424 -224 74 -50 190 -122 256 -161
207 -121 579 -400 709 -533 50 -50 149 -141 222 -201 93 -77 158 -142 224
-222 50 -61 149 -171 218 -242 144 -149 434 -535 541 -720 35 -60 104 -171
154 -245 72 -108 117 -194 224 -424 73 -159 158 -358 188 -442 30 -85 79 -216
108 -292 71 -183 126 -380 181 -652 25 -123 54 -263 65 -310 102 -459 120
-1335 40 -1905 -12 -82 -30 -188 -40 -235 -11 -47 -40 -187 -65 -310 -55 -272
-110 -469 -181 -652 -29 -76 -78 -207 -108 -292 -30 -84 -115 -283 -188 -442
-107 -231 -152 -316 -224 -424 -50 -74 -121 -187 -158 -251 -37 -64 -112 -171
-166 -237 -54 -65 -138 -180 -188 -253 -62 -92 -119 -162 -182 -224 -50 -49
-141 -149 -201 -222 -82 -99 -143 -160 -242 -242 -73 -60 -172 -151 -222 -201
-62 -63 -132 -120 -224 -182 -73 -50 -188 -134 -253 -188 -66 -54 -173 -129
-237 -166 -64 -37 -177 -108 -251 -158 -108 -72 -193 -117 -424 -224 -159 -73
-358 -158 -442 -188 -85 -30 -216 -79 -292 -108 -183 -71 -380 -126 -652 -181
-123 -25 -263 -54 -310 -65 -459 -102 -1335 -120 -1905 -40 -82 12 -188 30
-235 40 -47 11 -187 40 -310 65 -272 55 -469 110 -652 181 -76 29 -207 78
-292 108 -84 30 -283 115 -442 188 -231 107 -316 152 -424 224 -74 50 -187
121 -251 158 -64 37 -171 112 -237 166 -65 54 -180 138 -253 188 -92 62 -162
119 -224 182 -49 50 -149 141 -222 201 -99 82 -160 143 -242 242 -60 73 -151
173 -201 222 -63 62 -120 132 -182 224 -50 73 -134 188 -188 253 -54 66 -129
173 -166 237 -37 64 -108 177 -158 251 -72 108 -117 193 -224 424 -73 159
-158 358 -188 442 -30 85 -79 216 -108 292 -71 183 -126 380 -181 652 -25 123
-54 263 -65 310 -102 459 -120 1335 -40 1905 12 83 30 188 40 235 11 47 40
187 65 310 55 272 110 469 181 652 29 76 78 207 108 292 30 84 115 283 188
442 107 230 152 316 224 424 50 74 119 185 154 245 107 185 397 571 541 720
69 71 168 181 218 242 66 80 131 145 224 222 73 60 173 151 222 201 130 133
502 412 709 533 66 39 182 111 256 161 108 72 194 117 424 224 159 73 358 158
442 188 85 30 216 79 292 108 183 71 380 126 652 181 123 25 263 54 310 65
126 28 372 60 565 75 236 17 757 18 995 0z"/>
<path d="M5940 12479 c-199 -14 -430 -48 -635 -94 -104 -24 -237 -53 -295 -65
-141 -29 -659 -188 -829 -255 -265 -102 -775 -370 -1066 -560 -210 -137 -567
-406 -709 -534 -333 -303 -642 -649 -917 -1025 -207 -283 -586 -979 -711
-1306 -163 -425 -344 -1142 -368 -1455 -6 -82 -20 -215 -31 -295 -28 -209 -28
-771 0 -980 11 -80 25 -212 31 -295 24 -313 205 -1030 368 -1455 125 -327 504
-1023 711 -1306 275 -376 584 -722 917 -1025 142 -128 499 -397 709 -534 291
-190 801 -458 1066 -560 170 -67 688 -226 829 -255 58 -12 191 -41 295 -65
341 -77 631 -105 1095 -105 464 0 754 28 1095 105 105 24 237 53 295 65 141
29 659 188 829 255 265 102 775 370 1066 560 210 137 567 406 709 534 333 303
642 649 917 1025 207 283 586 979 711 1306 163 425 344 1142 368 1455 6 83 20
215 31 295 28 209 28 771 0 980 -11 80 -25 213 -31 295 -24 313 -205 1030
-368 1455 -125 327 -504 1023 -711 1306 -275 376 -584 722 -917 1025 -142 128
-499 397 -709 534 -291 190 -801 458 -1066 560 -170 67 -688 226 -829 255 -58
12 -190 41 -295 65 -213 48 -435 80 -663 95 -179 12 -710 11 -892 -1z"/>
</g>
</svg>
