<svg width="27" height="31" viewBox="0 0 27 31" fill="none" xmlns="http://www.w3.org/2000/svg">
<path d="M16 21C16.2 20 16.7 19.3 17.5 18.5C18.5 17.6 19 16.3 19 15C19 13.4087 18.3679 11.8826 17.2426 10.7574C16.1174 9.63214 14.5913 9 13 9C11.4087 9 9.88258 9.63214 8.75736 10.7574C7.63214 11.8826 7 13.4087 7 15C7 16 7.2 17.2 8.5 18.5C9.2 19.2 9.8 20 10 21" stroke="black" stroke-width="2" stroke-linecap="round" stroke-linejoin="round"/>
<path d="M10 25H16" stroke="black" stroke-width="2" stroke-linecap="round" stroke-linejoin="round"/>
<path d="M11 29H15" stroke="black" stroke-width="2" stroke-linecap="round" stroke-linejoin="round"/>
<path d="M1 8L4 10" stroke="black" stroke-width="2" stroke-linecap="round" stroke-linejoin="round"/>
<path d="M26 8L23 10" stroke="black" stroke-width="2" stroke-linecap="round" stroke-linejoin="round"/>
<path d="M13 1L13 5" stroke="black" stroke-width="2" stroke-linecap="round" stroke-linejoin="round"/>
<path d="M6 3L8 6" stroke="black" stroke-width="2" stroke-linecap="round" stroke-linejoin="round"/>
<path d="M21 4L19 6.38092" stroke="black" stroke-width="2" stroke-linecap="round" stroke-linejoin="round"/>
</svg>
